<svg xmlns:xlink="http://www.w3.org/1999/xlink" xmlns="http://www.w3.org/2000/svg" viewBox="0 0 16 16" width="16" height="16" fill="currentColor" aria-hidden="true" class="x14rh7hd x1lliihq x1tzjh5l x1k90msu x2h7rmj x1qfuztq" style="--x-color: var(--primary-icon);"><path d="M5.5 8a2.5 2.5 0 1 1 5 0 2.5 2.5 0 0 1-5 0z" fill="#080809"></path><path d="M5.03 1.659A2.25 2.25 0 0 1 6.621 1H9.38a2.25 2.25 0 0 1 1.59.659l.842.841h.939a2.75 2.75 0 0 1 2.75 2.75v6A2.75 2.75 0 0 1 12.75 14h-9.5A2.75 2.75 0 0 1 .5 11.25v-6A2.75 2.75 0 0 1 3.25 2.5h.94l.84-.841zM8 4a4 4 0 1 0 0 8 4 4 0 0 0 0-8z" fill="#080809"></path></svg>