<svg xmlns:xlink="http://www.w3.org/1999/xlink" xmlns="http://www.w3.org/2000/svg" viewBox="0 0 20 20" width="20" height="20" fill="currentColor" class="x14rh7hd x1lliihq x1tzjh5l x1k90msu x2h7rmj x1qfuztq" style="--x-color: var(--secondary-icon);"><path d="M16.841 2.028a2.25 2.25 0 0 0-3.182 0L2.513 13.175A1.75 1.75 0 0 0 2 14.412v2.336c0 .69.56 1.25 1.25 1.25h2.336a1.75 1.75 0 0 0 1.237-.513L17.97 6.34a2.25 2.25 0 0 0 0-3.182l-1.13-1.13zm-2.121 1.06a.75.75 0 0 1 1.06 0l1.129 1.13a.75.75 0 0 1 0 1.06l-1.035 1.035-2.19-2.19L14.72 3.09zm-2.096 2.097 2.19 2.189-9.051 9.05a.25.25 0 0 1-.177.074H3.5v-2.086a.25.25 0 0 1 .073-.177l9.05-9.05z" fill="#B0B3B8"></path></svg>